<svg xmlns="http://www.w3.org/2000/svg" viewBox="-4 -4 49 42">
  <rect x="-4" y="-4" width="49" height="42" fill="#8619e0"/>
  <path d="M29.0485 9.74201H28.1199C28.3159 8.91399 28.4142 8.06608 28.4127 7.21546C28.4127 5.35365 27.8175 3.89639 26.6269 2.84366C25.4363 1.79092 23.8005 1.26456 21.7194 1.26456C20.4284 1.20973 19.1567 1.59125 18.112 2.34686C17.1738 3.05657 16.7048 4.18382 16.7048 5.72861C16.7048 7.75838 17.8394 10.0803 20.1086 12.6944C22.3778 15.3085 24.1018 17.4281 25.2804 19.0534C26.4697 20.6842 27.0962 22.6535 27.0662 24.6671C27.0928 25.641 26.9162 26.6098 26.5474 27.5124C26.1785 28.4151 25.6255 29.232 24.9232 29.9119C23.4261 31.3498 21.6035 32.4097 19.6085 33.0027C17.6487 33.6444 15.6002 33.9797 13.5366 33.9963C12.2353 34.018 10.9341 33.9445 9.64354 33.7763C8.75782 33.6591 7.88883 33.44 7.05408 33.1233C6.17527 32.7596 5.3221 32.3376 4.50032 31.8601C3.68598 31.4094 3.1538 31.1859 2.91449 31.1859C2.66069 31.1753 2.41022 31.2461 2.20016 31.3881C1.96425 31.5811 1.77403 31.8235 1.64297 32.0978C1.46082 32.4526 1.21794 32.96 0.928637 33.6662H0C1.02864 31.2272 2.08825 27.5368 3.1788 22.5948H4.10743C3.78492 23.6279 3.63885 24.7074 3.67526 25.7885C3.67526 28.1542 4.33363 29.9391 5.6504 31.1432C6.96716 32.3474 8.83634 32.9518 11.2579 32.9566C13.2677 32.9566 14.6784 32.5815 15.4903 31.8316C16.3023 31.0817 16.7071 30.036 16.7048 28.6947C16.7244 27.0343 16.3136 25.3967 15.5118 23.9397C14.7189 22.5202 13.1605 20.3557 10.8365 17.4459C8.51251 14.536 7.35172 11.8475 7.35409 9.38006C7.3031 7.48657 7.97124 5.64336 9.22566 4.21694C10.5034 2.79188 12.1208 1.70838 13.9296 1.06584C15.7357 0.375972 17.6522 0.0153479 19.5871 0.00127857C20.7803 -0.0138424 21.9712 0.105199 23.1374 0.356132C23.9406 0.522147 24.7272 0.759676 25.4875 1.06584C26.0019 1.28821 26.7734 1.64899 27.802 2.14814L28.5841 2.50299C28.8186 2.63807 29.0768 2.7272 29.345 2.76559C29.5879 2.76559 29.8236 2.57397 30.0592 2.19072C30.3861 1.60592 30.6563 0.991636 30.8665 0.356132H31.788C30.5593 3.38522 29.6414 6.52978 29.0485 9.74201Z" fill="#8619e0"/>
  <path d="M39.1187 18.803C40.1577 18.803 41 17.9958 41 17C41 16.0042 40.1577 15.197 39.1187 15.197C38.0797 15.197 37.2373 16.0042 37.2373 17C37.2373 17.9958 38.0797 18.803 39.1187 18.803Z" fill="#8619e0"/>
</svg>
