<svg preserveAspectRatio="none" width="161" height="34" viewBox="0 0 161 34" fill="none" xmlns="http://www.w3.org/2000/svg">
<path d="M89.0485 9.74201H88.1199C88.3159 8.91399 88.4142 8.06608 88.4127 7.21546C88.4127 5.35365 87.8175 3.89639 86.6269 2.84366C85.4363 1.79092 83.8005 1.26456 81.7194 1.26456C80.4284 1.20973 79.1567 1.59125 78.112 2.34686C77.1738 3.05657 76.7048 4.18382 76.7048 5.72861C76.7048 7.75838 77.8394 10.0803 80.1086 12.6944C82.3778 15.3085 84.1018 17.4281 85.2804 19.0534C86.4697 20.6842 87.0962 22.6535 87.0662 24.6671C87.0928 25.641 86.9162 26.6098 86.5474 27.5124C86.1785 28.4151 85.6255 29.232 84.9232 29.9119C83.4261 31.3498 81.6035 32.4097 79.6085 33.0027C77.6487 33.6444 75.6002 33.9797 73.5366 33.9963C72.2353 34.018 70.9341 33.9445 69.6435 33.7763C68.7578 33.6591 67.8888 33.44 67.0541 33.1233C66.1753 32.7596 65.3221 32.3376 64.5003 31.8601C63.686 31.4094 63.1538 31.1859 62.9145 31.1859C62.6607 31.1753 62.4102 31.2461 62.2002 31.3881C61.9643 31.5811 61.774 31.8235 61.643 32.0978C61.4608 32.4526 61.2179 32.96 60.9286 33.6662H60C61.0286 31.2272 62.0882 27.5368 63.1788 22.5948H64.1074C63.7849 23.6279 63.6389 24.7074 63.6753 25.7885C63.6753 28.1542 64.3336 29.9391 65.6504 31.1432C66.9672 32.3474 68.8363 32.9518 71.2579 32.9566C73.2677 32.9566 74.6784 32.5815 75.4903 31.8316C76.3023 31.0817 76.7071 30.036 76.7048 28.6947C76.7244 27.0343 76.3136 25.3967 75.5118 23.9397C74.7189 22.5202 73.1605 20.3557 70.8365 17.4459C68.5125 14.536 67.3517 11.8475 67.3541 9.38006C67.3031 7.48657 67.9712 5.64336 69.2257 4.21694C70.5034 2.79188 72.1208 1.70838 73.9296 1.06584C75.7357 0.375972 77.6522 0.0153479 79.5871 0.00127857C80.7803 -0.0138424 81.9712 0.105199 83.1374 0.356132C83.9406 0.522147 84.7272 0.759676 85.4875 1.06584C86.0019 1.28821 86.7734 1.64899 87.802 2.14814L88.5841 2.50299C88.8186 2.63807 89.0768 2.7272 89.345 2.76559C89.5879 2.76559 89.8236 2.57397 90.0592 2.19072C90.3861 1.60592 90.6563 0.991636 90.8665 0.356132H91.788C90.5593 3.38522 89.6414 6.52978 89.0485 9.74201Z" fill="black"/>
<path d="M99.1187 18.803C100.158 18.803 101 17.9958 101 17C101 16.0042 100.158 15.197 99.1187 15.197C98.0797 15.197 97.2373 16.0042 97.2373 17C97.2373 17.9958 98.0797 18.803 99.1187 18.803Z" fill="black"/>
</svg>
