<svg width="24" height="24" viewBox="0 0 24 24" fill="none" xmlns="http://www.w3.org/2000/svg">
<path d="M1.5 9.1C1.5 6.43975 1.5 5.10963 2.01772 4.09354C2.47312 3.19978 3.19978 2.47312 4.09354 2.01772C5.10963 1.5 6.43975 1.5 9.1 1.5H14.9C17.5602 1.5 18.8904 1.5 19.9065 2.01772C20.8002 2.47312 21.5269 3.19978 21.9823 4.09354C22.5 5.10963 22.5 6.43975 22.5 9.1V14.9C22.5 17.5602 22.5 18.8904 21.9823 19.9065C21.5269 20.8002 20.8002 21.5269 19.9065 21.9823C18.8904 22.5 17.5602 22.5 14.9 22.5H9.1C6.43975 22.5 5.10963 22.5 4.09354 21.9823C3.19978 21.5269 2.47312 20.8002 2.01772 19.9065C1.5 18.8904 1.5 17.5602 1.5 14.9V9.1Z" fill="#001E36"/>
<path d="M12.5285 16.9651H6.97803C6.88408 16.9651 6.83712 16.9121 6.83717 16.8061V7.63118C6.82677 7.55653 6.8912 7.49047 6.96397 7.50114H8.68265C8.73925 7.49296 8.78912 7.54515 8.78126 7.6023V15.1445H12.8244C12.9089 15.1445 12.9418 15.1879 12.923 15.2746L12.6694 16.835C12.6672 16.9136 12.6027 16.9643 12.5285 16.9651Z" fill="#31A8FF"/>
<path d="M13.9386 9.77394H15.4742C15.5589 9.7747 15.6349 9.83468 15.6573 9.91844C15.7698 10.1747 15.7837 10.4837 15.7841 10.7604C16.0474 10.4459 16.365 10.1839 16.7209 9.98743C17.1026 9.76589 17.5354 9.65361 17.9739 9.66233C18.0467 9.65165 18.1111 9.71773 18.1007 9.79237V11.5407C18.1007 11.6082 18.0536 11.6418 17.9598 11.6418C17.3099 11.5958 16.298 11.7533 15.8257 12.2775V16.8234C15.8257 16.9101 15.7881 16.9534 15.713 16.9534H14.0654C13.9845 16.9653 13.9131 16.8906 13.9245 16.8089V11.873C13.9245 11.2116 13.9385 10.5303 13.84 9.8751C13.8248 9.81481 13.8811 9.75875 13.9386 9.77394Z" fill="#31A8FF"/>
</svg>
