<svg width="24" height="24" viewBox="0 0 24 24" fill="none" xmlns="http://www.w3.org/2000/svg">
<path d="M1.5 9.1C1.5 6.43975 1.5 5.10963 2.01772 4.09354C2.47312 3.19978 3.19978 2.47312 4.09354 2.01772C5.10963 1.5 6.43975 1.5 9.1 1.5H14.9C17.5602 1.5 18.8904 1.5 19.9065 2.01772C20.8002 2.47312 21.5269 3.19978 21.9823 4.09354C22.5 5.10963 22.5 6.43975 22.5 9.1V14.9C22.5 17.5602 22.5 18.8904 21.9823 19.9065C21.5269 20.8002 20.8002 21.5269 19.9065 21.9823C18.8904 22.5 17.5602 22.5 14.9 22.5H9.1C6.43975 22.5 5.10963 22.5 4.09354 21.9823C3.19978 21.5269 2.47312 20.8002 2.01772 19.9065C1.5 18.8904 1.5 17.5602 1.5 14.9V9.1Z" fill="white"/>
<path d="M1.5 9.1C1.5 6.43975 1.5 5.10963 2.01772 4.09354C2.47312 3.19978 3.19978 2.47312 4.09354 2.01772C5.10963 1.5 6.43975 1.5 9.1 1.5H14.9C17.5602 1.5 18.8904 1.5 19.9065 2.01772C20.8002 2.47312 21.5269 3.19978 21.9823 4.09354C22.5 5.10963 22.5 6.43975 22.5 9.1V14.9C22.5 17.5602 22.5 18.8904 21.9823 19.9065C21.5269 20.8002 20.8002 21.5269 19.9065 21.9823C18.8904 22.5 17.5602 22.5 14.9 22.5H9.1C6.43975 22.5 5.10963 22.5 4.09354 21.9823C3.19978 21.5269 2.47312 20.8002 2.01772 19.9065C1.5 18.8904 1.5 17.5602 1.5 14.9V9.1Z" fill="url(#paint0_radial_2002_491)"/>
<path d="M1.5 9.1C1.5 6.43975 1.5 5.10963 2.01772 4.09354C2.47312 3.19978 3.19978 2.47312 4.09354 2.01772C5.10963 1.5 6.43975 1.5 9.1 1.5H14.9C17.5602 1.5 18.8904 1.5 19.9065 2.01772C20.8002 2.47312 21.5269 3.19978 21.9823 4.09354C22.5 5.10963 22.5 6.43975 22.5 9.1V14.9C22.5 17.5602 22.5 18.8904 21.9823 19.9065C21.5269 20.8002 20.8002 21.5269 19.9065 21.9823C18.8904 22.5 17.5602 22.5 14.9 22.5H9.1C6.43975 22.5 5.10963 22.5 4.09354 21.9823C3.19978 21.5269 2.47312 20.8002 2.01772 19.9065C1.5 18.8904 1.5 17.5602 1.5 14.9V9.1Z" fill="url(#paint1_radial_2002_491)"/>
<path d="M1.5 9.1C1.5 6.43975 1.5 5.10963 2.01772 4.09354C2.47312 3.19978 3.19978 2.47312 4.09354 2.01772C5.10963 1.5 6.43975 1.5 9.1 1.5H14.9C17.5602 1.5 18.8904 1.5 19.9065 2.01772C20.8002 2.47312 21.5269 3.19978 21.9823 4.09354C22.5 5.10963 22.5 6.43975 22.5 9.1V14.9C22.5 17.5602 22.5 18.8904 21.9823 19.9065C21.5269 20.8002 20.8002 21.5269 19.9065 21.9823C18.8904 22.5 17.5602 22.5 14.9 22.5H9.1C6.43975 22.5 5.10963 22.5 4.09354 21.9823C3.19978 21.5269 2.47312 20.8002 2.01772 19.9065C1.5 18.8904 1.5 17.5602 1.5 14.9V9.1Z" fill="url(#paint2_radial_2002_491)"/>
<path d="M1.5 9.1C1.5 6.43975 1.5 5.10963 2.01772 4.09354C2.47312 3.19978 3.19978 2.47312 4.09354 2.01772C5.10963 1.5 6.43975 1.5 9.1 1.5H14.9C17.5602 1.5 18.8904 1.5 19.9065 2.01772C20.8002 2.47312 21.5269 3.19978 21.9823 4.09354C22.5 5.10963 22.5 6.43975 22.5 9.1V14.9C22.5 17.5602 22.5 18.8904 21.9823 19.9065C21.5269 20.8002 20.8002 21.5269 19.9065 21.9823C18.8904 22.5 17.5602 22.5 14.9 22.5H9.1C6.43975 22.5 5.10963 22.5 4.09354 21.9823C3.19978 21.5269 2.47312 20.8002 2.01772 19.9065C1.5 18.8904 1.5 17.5602 1.5 14.9V9.1Z" fill="url(#paint3_radial_2002_491)"/>
<path d="M1.5 9.1C1.5 6.43975 1.5 5.10963 2.01772 4.09354C2.47312 3.19978 3.19978 2.47312 4.09354 2.01772C5.10963 1.5 6.43975 1.5 9.1 1.5H14.9C17.5602 1.5 18.8904 1.5 19.9065 2.01772C20.8002 2.47312 21.5269 3.19978 21.9823 4.09354C22.5 5.10963 22.5 6.43975 22.5 9.1V14.9C22.5 17.5602 22.5 18.8904 21.9823 19.9065C21.5269 20.8002 20.8002 21.5269 19.9065 21.9823C18.8904 22.5 17.5602 22.5 14.9 22.5H9.1C6.43975 22.5 5.10963 22.5 4.09354 21.9823C3.19978 21.5269 2.47312 20.8002 2.01772 19.9065C1.5 18.8904 1.5 17.5602 1.5 14.9V9.1Z" fill="url(#paint4_radial_2002_491)"/>
<path d="M1.5 9.1C1.5 6.43975 1.5 5.10963 2.01772 4.09354C2.47312 3.19978 3.19978 2.47312 4.09354 2.01772C5.10963 1.5 6.43975 1.5 9.1 1.5H14.9C17.5602 1.5 18.8904 1.5 19.9065 2.01772C20.8002 2.47312 21.5269 3.19978 21.9823 4.09354C22.5 5.10963 22.5 6.43975 22.5 9.1V14.9C22.5 17.5602 22.5 18.8904 21.9823 19.9065C21.5269 20.8002 20.8002 21.5269 19.9065 21.9823C18.8904 22.5 17.5602 22.5 14.9 22.5H9.1C6.43975 22.5 5.10963 22.5 4.09354 21.9823C3.19978 21.5269 2.47312 20.8002 2.01772 19.9065C1.5 18.8904 1.5 17.5602 1.5 14.9V9.1Z" fill="url(#paint5_radial_2002_491)"/>
<path d="M1.5 9.1C1.5 6.43975 1.5 5.10963 2.01772 4.09354C2.47312 3.19978 3.19978 2.47312 4.09354 2.01772C5.10963 1.5 6.43975 1.5 9.1 1.5H14.9C17.5602 1.5 18.8904 1.5 19.9065 2.01772C20.8002 2.47312 21.5269 3.19978 21.9823 4.09354C22.5 5.10963 22.5 6.43975 22.5 9.1V14.9C22.5 17.5602 22.5 18.8904 21.9823 19.9065C21.5269 20.8002 20.8002 21.5269 19.9065 21.9823C18.8904 22.5 17.5602 22.5 14.9 22.5H9.1C6.43975 22.5 5.10963 22.5 4.09354 21.9823C3.19978 21.5269 2.47312 20.8002 2.01772 19.9065C1.5 18.8904 1.5 17.5602 1.5 14.9V9.1Z" fill="url(#paint6_radial_2002_491)"/>
<path d="M18.3525 7.82694C17.2413 6.59745 15.675 5.90643 14.0475 5.9154C12.455 5.9154 10.8363 6.6154 9.79501 7.74617C9.60251 7.72822 9.41001 7.71027 9.22626 7.71027C6.10251 7.71027 4.16876 10.4026 4.16876 12.8975C4.17751 14.2436 4.68501 15.5359 5.58626 16.5231C6.53126 17.5551 7.84376 18.1385 9.22626 18.1385H14.0475C17.32 18.1385 19.98 15.3833 19.98 12.009C19.9625 10.4564 19.385 8.96668 18.3525 7.82694ZM9.13001 17.259C6.81126 17.259 4.93876 15.3295 4.93876 12.9513C4.93876 10.591 6.80251 8.67053 9.11251 8.65258C10.1363 8.65258 11.2125 8.99361 11.895 9.73848L13.6538 11.5872C13.9425 11.8923 13.9338 12.3769 13.6363 12.6731C13.3388 12.9692 12.8663 12.9603 12.5775 12.6551L10.8625 10.8423C9.74251 9.85514 8.05376 9.98078 7.09126 11.1295C6.67126 11.6231 6.44376 12.2603 6.44376 12.9154C6.44376 14.4231 7.69501 15.6975 9.17376 15.6975H9.51501C10.005 16.3975 11.3788 17.259 11.3788 17.259H9.13001ZM17.7225 15.7154C16.7863 16.7205 15.4913 17.2859 14.135 17.2949C12.8488 17.2949 11.5363 16.7026 10.53 15.6795L8.23751 13.3103C7.94876 13.0051 7.95751 12.5205 8.24626 12.2244C8.38626 12.0808 8.57001 12.009 8.77126 12.009C8.97251 12.009 9.16501 12.0898 9.30501 12.2423L11.5888 14.5846C12.315 15.3295 13.2425 15.7513 14.135 15.7513C15.0888 15.7513 15.9988 15.3475 16.655 14.6295C17.3288 13.9205 17.705 12.9692 17.705 11.9821C17.705 9.95386 16.095 8.31155 14.1175 8.30258C13.365 8.30258 12.7438 8.45514 12.1313 8.89489C11.7845 8.53926 11.0375 8.18592 10.6963 8.11412C11.6413 7.20771 12.8225 6.76796 14.1175 6.76796C16.9263 6.76796 19.1925 9.1013 19.2013 11.9821C19.2013 13.3731 18.6763 14.7192 17.7225 15.7154Z" fill="white"/>
<defs>
<radialGradient id="paint0_radial_2002_491" cx="0" cy="0" r="1" gradientTransform="matrix(8.575 9.15385 -9.15385 9.02038 18.9562 19.4487)" gradientUnits="userSpaceOnUse">
<stop stop-color="#68E048"/>
<stop offset="1" stop-color="#5CE049" stop-opacity="0"/>
</radialGradient>
<radialGradient id="paint1_radial_2002_491" cx="0" cy="0" r="1" gradientTransform="matrix(-9.40625 8.66026 -8.66026 -9.89481 4.825 19.359)" gradientUnits="userSpaceOnUse">
<stop stop-color="#308CFE"/>
<stop offset="1" stop-color="#2F8BFF" stop-opacity="0"/>
</radialGradient>
<radialGradient id="paint2_radial_2002_491" cx="0" cy="0" r="1" gradientTransform="matrix(7.4375 1.03205 -1.03205 7.8238 18.5625 13.2564)" gradientUnits="userSpaceOnUse">
<stop stop-color="#FDD511"/>
<stop offset="1" stop-color="#FDD20D" stop-opacity="0"/>
</radialGradient>
<radialGradient id="paint3_radial_2002_491" cx="0" cy="0" r="1" gradientTransform="matrix(-6.69375 -8.83974 8.83974 -7.04142 5.0875 9.08333)" gradientUnits="userSpaceOnUse">
<stop stop-color="#F928C2"/>
<stop offset="1" stop-color="#F922BC" stop-opacity="0"/>
</radialGradient>
<radialGradient id="paint4_radial_2002_491" cx="0" cy="0" r="1" gradientTransform="matrix(4.9875 -9.96154 9.96154 5.24655 13.4 5)" gradientUnits="userSpaceOnUse">
<stop stop-color="#F90700"/>
<stop offset="1" stop-color="#F90700" stop-opacity="0"/>
</radialGradient>
<radialGradient id="paint5_radial_2002_491" cx="0" cy="0" r="1" gradientTransform="matrix(2.75625 -6.10256 6.10256 2.89941 21.3625 4.55128)" gradientUnits="userSpaceOnUse">
<stop stop-color="#FB4200"/>
<stop offset="1" stop-color="#FB4300" stop-opacity="0"/>
</radialGradient>
<radialGradient id="paint6_radial_2002_491" cx="0" cy="0" r="1" gradientTransform="matrix(-4.1125 -4.30769 4.30769 -4.3261 3.6875 4.05769)" gradientUnits="userSpaceOnUse">
<stop stop-color="#FE0D88"/>
<stop offset="1" stop-color="#FE0D88" stop-opacity="0"/>
</radialGradient>
</defs>
</svg>
