<svg width="24" height="24" viewBox="0 0 24 24" fill="none" xmlns="http://www.w3.org/2000/svg">
<path d="M1.5 9.1C1.5 6.43975 1.5 5.10963 2.01772 4.09354C2.47312 3.19978 3.19978 2.47312 4.09354 2.01772C5.10963 1.5 6.43975 1.5 9.1 1.5H14.9C17.5602 1.5 18.8904 1.5 19.9065 2.01772C20.8002 2.47312 21.5269 3.19978 21.9823 4.09354C22.5 5.10963 22.5 6.43975 22.5 9.1V14.9C22.5 17.5602 22.5 18.8904 21.9823 19.9065C21.5269 20.8002 20.8002 21.5269 19.9065 21.9823C18.8904 22.5 17.5602 22.5 14.9 22.5H9.1C6.43975 22.5 5.10963 22.5 4.09354 21.9823C3.19978 21.5269 2.47312 20.8002 2.01772 19.9065C1.5 18.8904 1.5 17.5602 1.5 14.9V9.1Z" fill="#001E36"/>
<path d="M6 16.8872V7.65256C6 7.58974 6.02625 7.55385 6.0875 7.55385C6.99172 7.55385 7.89553 7.5 8.8 7.5C10.2676 7.5 11.8567 8.00182 12.4138 9.53718C12.545 9.9141 12.615 10.3 12.615 10.7038C12.615 11.4756 12.44 12.1128 12.09 12.6154C11.1123 14.0193 9.41775 13.9974 7.89875 13.9974V16.8782C7.91063 16.9635 7.83795 17.0038 7.7675 17.0038H6.105C6.035 17.0038 6 16.968 6 16.8872ZM7.9075 9.2859V12.3013C8.50979 12.3454 9.14005 12.3502 9.71875 12.1577C10.3576 11.9734 10.7075 11.4204 10.7075 10.7577C10.7253 10.193 10.4176 9.65122 9.89375 9.44744C9.32202 9.20971 8.52466 9.19547 7.9075 9.2859Z" fill="#31A8FF"/>
<path d="M18.0725 11.7055C17.8077 11.566 17.5258 11.4639 17.2343 11.4021C16.8597 11.314 15.3823 11.0053 15.3818 11.7778C15.3949 12.209 16.0795 12.4203 16.382 12.5435C17.4439 12.9081 18.6455 13.5598 18.6219 14.8698C18.6544 16.5006 17.0743 17.1525 15.7199 17.1527C15.0148 17.16 14.2802 17.0508 13.6349 16.7481C13.5733 16.7155 13.5337 16.6458 13.5363 16.5747V15.0143C13.5294 14.9517 13.5965 14.897 13.649 14.942C14.2813 15.3244 15.0307 15.5101 15.7621 15.52C16.085 15.52 16.7249 15.4887 16.7201 15.0143C16.7201 14.559 15.9546 14.3497 15.6494 14.234C15.2071 14.0761 14.7877 13.8574 14.4027 13.5839C13.8646 13.2001 13.5271 12.5848 13.5363 11.9078C13.5332 10.3723 14.9876 9.68303 16.2975 9.6827C16.9098 9.67766 17.5674 9.723 18.1374 9.97168C18.2194 9.99581 18.2363 10.0821 18.236 10.1595V11.6188C18.2412 11.7094 18.1406 11.7403 18.0725 11.7055Z" fill="#31A8FF"/>
</svg>
