<svg width="24" height="24" viewBox="0 0 24 24" fill="none" xmlns="http://www.w3.org/2000/svg">
<mask id="mask0_2002_36" style="mask-type:luminance" maskUnits="userSpaceOnUse" x="3" y="0" width="17" height="24">
<path d="M19.7532 0H3.75V24H19.7532V0Z" fill="white"/>
</mask>
<g mask="url(#mask0_2002_36)">
<path d="M7.75147 23.9999C9.95948 23.9999 11.7515 22.2079 11.7515 19.9999V15.9999H7.75147C5.54347 15.9999 3.75146 17.792 3.75146 19.9999C3.75146 22.2079 5.54347 23.9999 7.75147 23.9999Z" fill="#0ACF83"/>
<path d="M3.75146 12C3.75146 9.79209 5.54347 8.00006 7.75147 8.00006H11.7515V16H7.75147C5.54347 16 3.75146 14.208 3.75146 12Z" fill="#A259FF"/>
<path d="M3.75146 3.99999C3.75146 1.79199 5.54347 0 7.75147 0H11.7515V7.99999H7.75147C5.54347 7.99999 3.75146 6.20799 3.75146 3.99999Z" fill="#F24E1E"/>
<path d="M11.7517 0H15.7517C17.9597 0 19.7518 1.79199 19.7518 3.99999C19.7518 6.20799 17.9597 7.99999 15.7517 7.99999H11.7517V0Z" fill="#FF7262"/>
<path d="M19.7518 12C19.7518 14.208 17.9597 16 15.7517 16C13.5437 16 11.7517 14.208 11.7517 12C11.7517 9.79209 13.5437 8.00006 15.7517 8.00006C17.9597 8.00006 19.7518 9.79209 19.7518 12Z" fill="#1ABCFE"/>
</g>
</svg>
