<svg width="24" height="24" viewBox="0 0 24 24" fill="none" xmlns="http://www.w3.org/2000/svg">
<g clip-path="url(#clip0_2002_37)">
<path fill-rule="evenodd" clip-rule="evenodd" d="M12 1.52588e-05C5.36999 1.52588e-05 0 5.50583 0 12.3035C0 17.7478 3.43499 22.3462 8.20499 23.9765C8.80499 24.0842 9.02999 23.7151 9.02999 23.3921C9.02999 23.0998 9.01499 22.1309 9.01499 21.1006C5.99999 21.6696 5.21999 20.347 4.97999 19.6548C4.84499 19.3011 4.25999 18.2091 3.74999 17.917C3.32999 17.6863 2.73 17.1173 3.73499 17.1019C4.67999 17.0865 5.35499 17.9938 5.57999 18.3631C6.65999 20.2239 8.38499 19.7011 9.07499 19.3781C9.17999 18.5784 9.49499 18.0401 9.83998 17.7324C7.16999 17.4248 4.37999 16.3637 4.37999 11.6576C4.37999 10.3196 4.84499 9.21226 5.60999 8.35103C5.48999 8.04343 5.06999 6.78232 5.72999 5.0906C5.72999 5.0906 6.73499 4.76763 9.02999 6.35171C9.98998 6.07487 11.01 5.93646 12.03 5.93646C13.05 5.93646 14.07 6.07487 15.03 6.35171C17.3251 4.75225 18.33 5.0906 18.33 5.0906C18.99 6.78232 18.57 8.04343 18.45 8.35103C19.2149 9.21226 19.68 10.3042 19.68 11.6576C19.68 16.3791 16.875 17.4248 14.205 17.7324C14.64 18.1169 15.015 18.8551 15.015 20.0086C15.015 21.6542 15 22.9769 15 23.3921C15 23.7151 15.225 24.0996 15.825 23.9765C20.5651 22.3462 24 17.7324 24 12.3035C24 5.50583 18.63 1.52588e-05 12 1.52588e-05Z" fill="black"/>
</g>
<defs>
<clipPath id="clip0_2002_37">
<rect width="24" height="24" fill="white"/>
</clipPath>
</defs>
</svg>
