<svg width="24" height="24" viewBox="0 0 24 24" fill="none" xmlns="http://www.w3.org/2000/svg">
<g clip-path="url(#clip0_2002_38)">
<path d="M12.004 23.8198L16.4254 10.1985H7.58905L12.004 23.8198Z" fill="#E24329"/>
<path d="M1.3961 10.1986L0.049679 14.3369C-0.0721607 14.7127 0.0594178 15.1275 0.381006 15.3617L12.004 23.8198L1.3961 10.1986Z" fill="#FCA326"/>
<path d="M1.39612 10.1986H7.58904L4.92378 1.99507C4.78737 1.57537 4.19289 1.57537 4.05157 1.99507L1.39612 10.1986Z" fill="#E24329"/>
<path d="M22.6184 10.1986L23.96 14.3369C24.0818 14.7127 23.9502 15.1275 23.6286 15.3617L12.004 23.8198L22.6184 10.1986Z" fill="#FCA326"/>
<path d="M22.6184 10.1986H16.4255L19.0858 1.99507C19.2222 1.57537 19.8167 1.57537 19.958 1.99507L22.6184 10.1986Z" fill="#E24329"/>
<path d="M12.004 23.8198L16.4254 10.1986H22.6184L12.004 23.8198Z" fill="#FC6D26"/>
<path d="M12.004 23.8198L1.39612 10.1986H7.58904L12.004 23.8198Z" fill="#FC6D26"/>
</g>
<defs>
<clipPath id="clip0_2002_38">
<rect width="24" height="24" fill="white"/>
</clipPath>
</defs>
</svg>
