<svg width="24" height="24" viewBox="0 0 24 24" fill="none" xmlns="http://www.w3.org/2000/svg">
<g clip-path="url(#clip0_2002_40)">
<mask id="mask0_2002_40" style="mask-type:luminance" maskUnits="userSpaceOnUse" x="3" y="0" width="18" height="24">
<path d="M20.5938 0H3.23999V24H20.5938V0Z" fill="white"/>
</mask>
<g mask="url(#mask0_2002_40)">
<mask id="mask1_2002_40" style="mask-type:alpha" maskUnits="userSpaceOnUse" x="3" y="0" width="18" height="24">
<path d="M14.0861 0H4.86691C3.97211 0 3.23999 0.736363 3.23999 1.63636V22.3636C3.23999 23.2636 3.97211 24 4.86691 24H18.9669C19.8617 24 20.5938 23.2636 20.5938 22.3636V6.54545L14.0861 0Z" fill="white"/>
</mask>
<g mask="url(#mask1_2002_40)">
<path d="M14.0861 0H4.86691C3.97211 0 3.23999 0.736363 3.23999 1.63636V22.3636C3.23999 23.2636 3.97211 24 4.86691 24H18.9669C19.8617 24 20.5938 23.2636 20.5938 22.3636V6.54545L16.7977 3.81818L14.0861 0Z" fill="#4285F4"/>
</g>
<mask id="mask2_2002_40" style="mask-type:alpha" maskUnits="userSpaceOnUse" x="3" y="0" width="18" height="24">
<path d="M14.0861 0H4.86691C3.97211 0 3.23999 0.736363 3.23999 1.63636V22.3636C3.23999 23.2636 3.97211 24 4.86691 24H18.9669C19.8617 24 20.5938 23.2636 20.5938 22.3636V6.54545L14.0861 0Z" fill="white"/>
</mask>
<g mask="url(#mask2_2002_40)">
<path d="M14.5615 6.0668L20.5933 12.1323V6.54543L14.5615 6.0668Z" fill="url(#paint0_linear_2002_40)"/>
</g>
<mask id="mask3_2002_40" style="mask-type:alpha" maskUnits="userSpaceOnUse" x="3" y="0" width="18" height="24">
<path d="M14.0861 0H4.86691C3.97211 0 3.23999 0.736363 3.23999 1.63636V22.3636C3.23999 23.2636 3.97211 24 4.86691 24H18.9669C19.8617 24 20.5938 23.2636 20.5938 22.3636V6.54545L14.0861 0Z" fill="white"/>
</mask>
<g mask="url(#mask3_2002_40)">
<path d="M7.57849 17.4546H16.2554V16.3636H7.57849V17.4546ZM7.57849 19.6364H14.0862V18.5454H7.57849V19.6364ZM7.57849 12V13.0909H16.2554V12H7.57849ZM7.57849 15.2727H16.2554V14.1818H7.57849V15.2727Z" fill="#F1F1F1"/>
</g>
<mask id="mask4_2002_40" style="mask-type:alpha" maskUnits="userSpaceOnUse" x="3" y="0" width="18" height="24">
<path d="M14.0861 0H4.86691C3.97211 0 3.23999 0.736363 3.23999 1.63636V22.3636C3.23999 23.2636 3.97211 24 4.86691 24H18.9669C19.8617 24 20.5938 23.2636 20.5938 22.3636V6.54545L14.0861 0Z" fill="white"/>
</mask>
<g mask="url(#mask4_2002_40)">
<path d="M14.0858 0V4.90908C14.0858 5.81318 14.8139 6.54545 15.7128 6.54545H20.5935L14.0858 0Z" fill="#A1C2FA"/>
</g>
<mask id="mask5_2002_40" style="mask-type:alpha" maskUnits="userSpaceOnUse" x="3" y="0" width="18" height="24">
<path d="M14.0861 0H4.86691C3.97211 0 3.23999 0.736363 3.23999 1.63636V22.3636C3.23999 23.2636 3.97211 24 4.86691 24H18.9669C19.8617 24 20.5938 23.2636 20.5938 22.3636V6.54545L14.0861 0Z" fill="white"/>
</mask>
<g mask="url(#mask5_2002_40)">
<path d="M4.86691 0C3.97211 0 3.23999 0.736363 3.23999 1.63636V1.77273C3.23999 0.872726 3.97211 0.136364 4.86691 0.136364H14.0861V0H4.86691Z" fill="white" fill-opacity="0.2"/>
</g>
<mask id="mask6_2002_40" style="mask-type:alpha" maskUnits="userSpaceOnUse" x="3" y="0" width="18" height="24">
<path d="M14.0861 0H4.86691C3.97211 0 3.23999 0.736363 3.23999 1.63636V22.3636C3.23999 23.2636 3.97211 24 4.86691 24H18.9669C19.8617 24 20.5938 23.2636 20.5938 22.3636V6.54545L14.0861 0Z" fill="white"/>
</mask>
<g mask="url(#mask6_2002_40)">
<path d="M18.9669 23.8636H4.86691C3.97211 23.8636 3.23999 23.1273 3.23999 22.2273V22.3636C3.23999 23.2636 3.97211 24 4.86691 24H18.9669C19.8617 24 20.5938 23.2636 20.5938 22.3636V22.2273C20.5938 23.1273 19.8617 23.8636 18.9669 23.8636Z" fill="#1A237E" fill-opacity="0.2"/>
</g>
<mask id="mask7_2002_40" style="mask-type:alpha" maskUnits="userSpaceOnUse" x="3" y="0" width="18" height="24">
<path d="M14.0861 0H4.86691C3.97211 0 3.23999 0.736363 3.23999 1.63636V22.3636C3.23999 23.2636 3.97211 24 4.86691 24H18.9669C19.8617 24 20.5938 23.2636 20.5938 22.3636V6.54545L14.0861 0Z" fill="white"/>
</mask>
<g mask="url(#mask7_2002_40)">
<path d="M15.7128 6.54547C14.8139 6.54547 14.0858 5.81321 14.0858 4.9091V5.04547C14.0858 5.94958 14.8139 6.68184 15.7128 6.68184H20.5935V6.54547H15.7128Z" fill="#1A237E" fill-opacity="0.1"/>
</g>
<path d="M14.0861 0H4.86691C3.97211 0 3.23999 0.736363 3.23999 1.63636V22.3636C3.23999 23.2636 3.97211 24 4.86691 24H18.9669C19.8617 24 20.5938 23.2636 20.5938 22.3636V6.54545L14.0861 0Z" fill="url(#paint1_radial_2002_40)"/>
</g>
</g>
<defs>
<linearGradient id="paint0_linear_2002_40" x1="17.5778" y1="6.5876" x2="17.5778" y2="12.1331" gradientUnits="userSpaceOnUse">
<stop stop-color="#1A237E" stop-opacity="0.2"/>
<stop offset="1" stop-color="#1A237E" stop-opacity="0.02"/>
</linearGradient>
<radialGradient id="paint1_radial_2002_40" cx="0" cy="0" r="1" gradientUnits="userSpaceOnUse" gradientTransform="translate(3.78977 0.47436) scale(27.9828)">
<stop stop-color="white" stop-opacity="0.1"/>
<stop offset="1" stop-color="white" stop-opacity="0"/>
</radialGradient>
<clipPath id="clip0_2002_40">
<rect width="17.52" height="24" fill="white" transform="translate(3.23999)"/>
</clipPath>
</defs>
</svg>
