<svg width="24" height="24" viewBox="0 0 24 24" fill="none" xmlns="http://www.w3.org/2000/svg">
<path d="M14.2758 0H4.60404C3.69316 0 2.89697 0.799648 2.89697 1.71449V22.2855C2.89697 23.1994 3.69316 24 4.60404 24H19.3961C20.306 24 21.1031 23.2004 21.1031 22.2855V6.85701L17.1203 4.00016L14.2758 0Z" fill="#673AB7"/>
<path d="M9.72424 17.7132H16.5515V16.5709H9.72424V17.7132ZM9.72424 10.285V11.4274H16.5515V10.285H9.72424ZM8.69961 10.8572C8.69961 11.3141 8.35839 11.7711 7.78969 11.7711C7.22098 11.7711 6.87976 11.4284 6.87976 10.8572C6.87976 10.286 7.22098 9.94329 7.78969 9.94329C8.35839 9.94329 8.69961 10.3993 8.69961 10.8572ZM8.69961 14.0567C8.69961 14.5137 8.35839 14.9706 7.78969 14.9706C7.22098 14.9706 6.87976 14.6279 6.87976 14.0567C6.87976 13.4855 7.22098 13.1428 7.78969 13.1428C8.35839 13.1428 8.69961 13.5998 8.69961 14.0567ZM8.69961 17.142C8.69961 17.599 8.35839 18.0559 7.78969 18.0559C7.22098 18.0559 6.87976 17.7132 6.87976 17.142C6.87976 16.5709 7.22098 16.2282 7.78969 16.2282C8.35839 16.2282 8.69961 16.6851 8.69961 17.142ZM9.72424 14.8564H16.5515V13.7131H9.72424V14.8564Z" fill="#F1F1F1"/>
<path d="M14.7308 6.39993L21.1032 12.6858V6.85687L14.7308 6.39993Z" fill="url(#paint0_linear_2002_41)"/>
<path d="M14.2759 -7.62939e-05V5.14244C14.2759 6.05632 15.0721 6.85693 15.9829 6.85693H21.1032L14.2759 -7.62939e-05Z" fill="#B39DDB"/>
<path d="M4.60404 0C3.69316 0 2.89697 0.799648 2.89697 1.71449V1.82873C2.89697 0.913883 3.69316 0.114235 4.60404 0.114235H14.2758V0H4.60404Z" fill="white" fill-opacity="0.2"/>
<path d="M19.3961 23.8848H4.60404C3.69316 23.8848 2.89697 23.0851 2.89697 22.1703V22.2845C2.89697 23.1984 3.69316 23.999 4.60404 23.999H19.3961C20.306 23.999 21.1031 23.1994 21.1031 22.2845V22.1703C21.1031 23.0851 20.306 23.8848 19.3961 23.8848Z" fill="#311B92" fill-opacity="0.2"/>
<path d="M15.982 6.85692C15.072 6.85692 14.2749 6.05727 14.2749 5.14243V5.25666C14.2749 6.17054 15.0711 6.97115 15.982 6.97115H21.1022V6.85692H15.982Z" fill="#311B92" fill-opacity="0.1"/>
<path d="M14.2758 0H4.60404C3.69316 0 2.89697 0.799648 2.89697 1.71449V22.2855C2.89697 23.1994 3.69316 24 4.60404 24H19.3961C20.306 24 21.1031 23.2004 21.1031 22.2855V6.85701L14.2758 0Z" fill="url(#paint1_radial_2002_41)"/>
<defs>
<linearGradient id="paint0_linear_2002_41" x1="17.9166" y1="6.90019" x2="17.9166" y2="12.7098" gradientUnits="userSpaceOnUse">
<stop stop-color="#311B92" stop-opacity="0.2"/>
<stop offset="1" stop-color="#311B92" stop-opacity="0.02"/>
</linearGradient>
<radialGradient id="paint1_radial_2002_41" cx="0" cy="0" r="1" gradientUnits="userSpaceOnUse" gradientTransform="translate(3.47295 0.640489) scale(234.837 235.857)">
<stop stop-color="white" stop-opacity="0.1"/>
<stop offset="1" stop-color="white" stop-opacity="0"/>
</radialGradient>
</defs>
</svg>
