<svg width="24" height="24" viewBox="0 0 24 24" fill="none" xmlns="http://www.w3.org/2000/svg">
<g clip-path="url(#clip0_2002_43)">
<mask id="mask0_2002_43" style="mask-type:luminance" maskUnits="userSpaceOnUse" x="0" y="0" width="24" height="25">
<path d="M0.348877 0.00878906H23.6739V24.0088H0.348877V0.00878906Z" fill="white"/>
</mask>
<g mask="url(#mask0_2002_43)">
<path d="M6.07666 0.0458679L6.07741 5.78112" stroke="#7E916F" stroke-width="0.15"/>
<path d="M6.07738 5.78113L0.348877 5.77963" stroke="#1375EB" stroke-width="0.15"/>
<path d="M17.9799 0.0893555C17.9719 0.0923555 17.9652 0.0955805 17.9597 0.0991055C17.9557 0.10097 17.9524 0.103955 17.9502 0.107689C17.9479 0.111423 17.9468 0.115741 17.9469 0.120105L17.9454 5.78336" stroke="#F3801D" stroke-width="0.15"/>
<path d="M17.9454 5.78339H17.9417" stroke="#7EB426" stroke-width="0.15"/>
<path d="M6.07964 5.78335L6.07739 5.7811" stroke="#91A080" stroke-width="0.15"/>
<path d="M23.6387 5.76535L17.9454 5.78335" stroke="#75783E" stroke-width="0.15"/>
<path d="M6.08113 13.7094L0.348877 13.7079" stroke="#138495" stroke-width="0.15"/>
<path d="M6.08193 19.4424L6.08118 16.5714" stroke="#00983A" stroke-width="0.15"/>
<path d="M6.07663 0.0462646L6.07738 5.78151L0.348877 5.78001V1.56576C0.391402 1.26779 0.479602 1.01751 0.613627 0.815015C0.944152 0.314015 1.4246 0.0617897 2.05513 0.0582647C3.3881 0.0512897 4.72865 0.0472396 6.07663 0.0462646Z" fill="#0066DA"/>
<path d="M6.07666 0.0462646L17.8832 0.0477646C17.9081 0.0477646 17.9321 0.0553396 17.9522 0.0695146L17.9799 0.0897647C17.9719 0.0927647 17.9651 0.0959897 17.9597 0.0995147C17.9557 0.101379 17.9524 0.104364 17.9501 0.108098C17.9479 0.111832 17.9467 0.11615 17.9469 0.120515L17.9454 5.78376H6.07966L6.07741 5.78151L6.07666 0.0462646Z" fill="#FBBC04"/>
<path d="M17.9799 0.0897522L23.6387 5.76575L17.9454 5.78375L17.9469 0.120502C17.9469 0.110977 17.9512 0.104002 17.9597 0.0995022C17.9652 0.0959772 17.9719 0.0927522 17.9799 0.0897522Z" fill="#EA4335"/>
<path d="M0.348877 5.78003L6.07738 5.78153L6.07963 5.78378L6.08113 13.7098L0.348877 13.7083V5.78003Z" fill="#2684FC"/>
<path d="M23.6387 5.76575L23.6739 5.79125V17.9337C23.541 18.6603 23.1645 19.1295 22.5444 19.3415C22.3234 19.4175 21.9977 19.455 21.5672 19.454C18.7727 19.4495 15.9497 19.4452 13.0982 19.4412C12.6842 19.4407 12.2642 19.4437 11.8382 19.4502C11.8147 19.4508 11.7947 19.4592 11.7782 19.4757C10.3747 20.8727 8.97467 22.2732 7.57818 23.6772C7.36293 23.894 7.11918 24.0147 6.81018 23.969C6.52218 23.9265 6.30993 23.778 6.17343 23.5235C6.1159 23.4155 6.08665 23.2185 6.08568 22.9325C6.08215 21.773 6.08095 20.6097 6.08193 19.4427L6.08118 16.5717L8.91468 13.7382C8.93958 13.7133 8.97363 13.6992 9.00918 13.6992L17.8817 13.7022C17.9158 13.7022 17.9439 13.6741 17.9439 13.64L17.9417 5.78375H17.9454L23.6387 5.76575Z" fill="#00AC47"/>
<path d="M6.08113 13.7098V16.5718L6.08188 19.4428C4.88338 19.4497 3.69515 19.452 2.51713 19.4495C2.0261 19.4485 1.6724 19.41 1.45588 19.334C0.848902 19.122 0.479902 18.652 0.348877 17.924V13.7083L6.08113 13.7098Z" fill="#00832D"/>
</g>
</g>
<defs>
<clipPath id="clip0_2002_43">
<rect width="24" height="24" fill="white"/>
</clipPath>
</defs>
</svg>
