<svg width="24" height="24" viewBox="0 0 24 24" fill="none" xmlns="http://www.w3.org/2000/svg">
<g clip-path="url(#clip0_2002_39)">
<path d="M23.27 12.0227C23.27 11.1718 23.1936 10.3536 23.0518 9.56818H11.75V14.21H18.2082C17.93 15.71 17.0845 16.9809 15.8136 17.8318V20.8427H19.6918C21.9609 18.7536 23.27 15.6773 23.27 12.0227Z" fill="#4285F4"/>
<path d="M11.75 23.75C14.99 23.75 17.7064 22.6755 19.6918 20.8427L15.8136 17.8318C14.7391 18.5518 13.3645 18.9773 11.75 18.9773C8.62455 18.9773 5.97909 16.8664 5.03546 14.03H1.02637V17.1391C3.00091 21.0609 7.05909 23.75 11.75 23.75Z" fill="#34A853"/>
<path d="M5.03546 14.03C4.79546 13.31 4.65909 12.5409 4.65909 11.75C4.65909 10.9591 4.79546 10.19 5.03546 9.47V6.36091H1.02636C0.186364 8.03312 -0.25074 9.87867 -0.249999 11.75C-0.249999 13.6864 0.213637 15.5191 1.02636 17.1391L5.03546 14.03Z" fill="#FBBC05"/>
<path d="M11.75 4.52273C13.5118 4.52273 15.0936 5.12818 16.3373 6.31727L19.7791 2.87545C17.7009 0.939091 14.9845 -0.25 11.75 -0.25C7.05909 -0.25 3.00091 2.43909 1.02637 6.36091L5.03546 9.47C5.97909 6.63364 8.62455 4.52273 11.75 4.52273Z" fill="#EA4335"/>
</g>
<defs>
<clipPath id="clip0_2002_39">
<rect width="24" height="24" fill="white"/>
</clipPath>
</defs>
</svg>
