<svg width="24" height="24" viewBox="0 0 24 24" fill="none" xmlns="http://www.w3.org/2000/svg">
<path d="M13.9099 0.0107117H4.64581C3.74647 0.0107117 3.01086 0.746394 3.01086 1.64566V22.3542C3.01086 23.2537 3.74655 23.9891 4.64581 23.9891H18.8146C19.7142 23.9891 20.4496 23.2537 20.4496 22.3542V6.55042L16.635 3.82551L13.9099 0.0107117Z" fill="#0F9C57"/>
<path d="M7.37061 11.7276V19.6299H16.0903V11.7276H7.37061ZM11.1855 18.5397H8.4605V17.1774H11.1855V18.5397ZM11.1855 16.36H8.4605V14.9971H11.1855V16.36ZM11.1855 14.1797H8.4605V12.8175H11.1855V14.1797ZM15.0002 18.5397H12.275V17.1774H15.0002V18.5397ZM15.0002 16.36H12.275V14.9971H15.0002V16.36ZM15.0002 14.1797H12.275V12.8175H15.0002V14.1797Z" fill="#F0F0F0"/>
<mask id="mask0_2002_42" style="mask-type:luminance" maskUnits="userSpaceOnUse" x="14" y="6" width="7" height="8">
<path fill-rule="evenodd" clip-rule="evenodd" d="M14.3776 6.06129H20.4603V13.1876H14.3776V6.06129Z" fill="url(#paint0_linear_2002_42)"/>
</mask>
<g mask="url(#mask0_2002_42)">
<path d="M14.3883 6.07207L20.4494 12.1323V6.55044L14.3883 6.07207Z" fill="url(#paint1_linear_2002_42)"/>
</g>
<path d="M13.9099 0.0107117V4.91555C13.9099 5.81884 14.6417 6.55042 15.5448 6.55042H20.4496L13.9099 0.0107117Z" fill="#87CDAC"/>
<path d="M4.64569 0.0107117C3.74635 0.0107117 3.01074 0.746394 3.01074 1.64573V1.7819C3.01074 0.882784 3.74642 0.146957 4.64569 0.146957H13.9098V0.0107836H4.64569V0.0107117Z" fill="white" fill-opacity="0.2"/>
<path d="M18.8145 23.8532H4.64569C3.74635 23.8532 3.01074 23.1173 3.01074 22.2183V22.3542C3.01074 23.2538 3.74642 23.9892 4.64569 23.9892H18.8145C19.7141 23.9892 20.4494 23.2537 20.4494 22.3542V22.2183C20.4494 23.1174 19.714 23.8532 18.8145 23.8532Z" fill="#263138" fill-opacity="0.2"/>
<path d="M15.5448 6.55057C14.6417 6.55057 13.9099 5.81899 13.9099 4.9157V5.05187C13.9099 5.95516 14.6417 6.68674 15.5448 6.68674H20.4496V6.55057H15.5448Z" fill="#263138" fill-opacity="0.102"/>
<mask id="mask1_2002_42" style="mask-type:luminance" maskUnits="userSpaceOnUse" x="3" y="0" width="18" height="24">
<path fill-rule="evenodd" clip-rule="evenodd" d="M3 0H20.4604V24H3V0Z" fill="url(#paint2_radial_2002_42)"/>
</mask>
<g mask="url(#mask1_2002_42)">
<path d="M13.9099 0.010788H4.64581C3.74647 0.010788 3.01086 0.746471 3.01086 1.64581V22.3543C3.01086 23.2538 3.74655 23.9892 4.64581 23.9892H18.8146C19.7142 23.9892 20.4496 23.2537 20.4496 22.3543V6.5505L13.9099 0.010788Z" fill="url(#paint3_radial_2002_42)"/>
</g>
<defs>
<linearGradient id="paint0_linear_2002_42" x1="17.4189" y1="6.56942" x2="17.4189" y2="12.6795" gradientUnits="userSpaceOnUse">
<stop stop-color="white" stop-opacity="0.02"/>
<stop offset="1" stop-color="white" stop-opacity="0.2"/>
</linearGradient>
<linearGradient id="paint1_linear_2002_42" x1="17.4189" y1="6.85359" x2="17.4189" y2="12.3953" gradientUnits="userSpaceOnUse">
<stop stop-color="#263138"/>
<stop offset="1" stop-color="#263138"/>
</linearGradient>
<radialGradient id="paint2_radial_2002_42" cx="0" cy="0" r="1" gradientTransform="matrix(0 0 0 0 3.01079 0.0107903)" gradientUnits="userSpaceOnUse">
<stop stop-color="white" stop-opacity="0"/>
<stop offset="1" stop-color="white" stop-opacity="0.098"/>
</radialGradient>
<radialGradient id="paint3_radial_2002_42" cx="0" cy="0" r="1" gradientUnits="userSpaceOnUse" gradientTransform="translate(3.70834 0.73017) scale(11.9892)">
<stop stop-color="white"/>
<stop offset="1" stop-color="white"/>
</radialGradient>
</defs>
</svg>
