<svg width="24" height="25" viewBox="0 0 24 25" fill="none" xmlns="http://www.w3.org/2000/svg">
<path d="M17.3033 11.3409C17.4784 11.3198 17.6463 11.3193 17.8004 11.3409C17.8896 11.136 17.9049 10.7832 17.8248 10.3992C17.7053 9.82796 17.5441 9.48236 17.2107 9.53612C16.8772 9.58988 16.8647 10.0036 16.9842 10.5748C17.0514 10.896 17.1704 11.171 17.3033 11.3409Z" fill="black"/>
<path d="M14.4393 11.7931C14.6782 11.8977 14.8246 11.9673 14.8822 11.9068C14.9191 11.8689 14.9081 11.7969 14.851 11.7038C14.7334 11.5113 14.4906 11.3164 14.2339 11.2065C13.7081 10.98 13.081 11.0553 12.5973 11.4033C12.4375 11.5204 12.2864 11.6827 12.308 11.7811C12.3152 11.8128 12.3387 11.8368 12.3948 11.8449C12.5263 11.8598 12.9864 11.6275 13.5166 11.5948C13.8909 11.5718 14.2008 11.6884 14.4393 11.7931Z" fill="black"/>
<path d="M13.9589 12.0672C13.648 12.1161 13.4767 12.2188 13.3663 12.3144C13.2723 12.3964 13.2142 12.4871 13.2147 12.551L13.2387 12.6076L13.2901 12.6273C13.3601 12.6273 13.5175 12.5644 13.5175 12.5644C13.9503 12.4094 14.2358 12.4281 14.5184 12.4603C14.6748 12.478 14.7487 12.4876 14.7827 12.4339C14.7928 12.4185 14.8053 12.3854 14.7741 12.3345C14.7012 12.2164 14.3874 12.0168 13.9594 12.0676L13.9589 12.0672Z" fill="black"/>
<path d="M16.3364 13.0732C16.5475 13.1769 16.7798 13.1361 16.8556 12.982C16.9314 12.828 16.8215 12.6192 16.6104 12.5155C16.3993 12.4118 16.1671 12.4526 16.0912 12.6067C16.0154 12.7607 16.1253 12.9695 16.3364 13.0732Z" fill="black"/>
<path d="M17.6933 11.8872C17.522 11.8843 17.3795 12.0724 17.3757 12.3081C17.3719 12.5433 17.5076 12.7363 17.6789 12.7392C17.8502 12.742 17.9927 12.5539 17.9966 12.3187C18.0004 12.0835 17.8646 11.8905 17.6933 11.8872Z" fill="black"/>
<path d="M6.17455 16.1294C6.13184 16.0761 6.06179 16.0924 5.99414 16.1078C5.94664 16.1188 5.8929 16.1313 5.83436 16.1303C5.70817 16.1279 5.60117 16.0742 5.5412 15.982C5.46299 15.862 5.46778 15.683 5.55367 15.478L5.59397 15.3863C5.73168 15.0777 5.96151 14.5607 5.70337 14.0687C5.50905 13.6982 5.19141 13.4673 4.80996 13.4188C4.44387 13.3723 4.06674 13.5081 3.82635 13.7735C3.44682 14.1921 3.3878 14.7619 3.46121 14.9635C3.48808 15.0374 3.53031 15.0575 3.56054 15.0619C3.62531 15.0705 3.72031 15.0235 3.78029 14.8627L3.79756 14.8103C3.82443 14.7254 3.87385 14.567 3.95494 14.4398C4.05282 14.2867 4.2054 14.1811 4.38485 14.1427C4.56718 14.1038 4.75383 14.1383 4.90976 14.2406C5.17558 14.4148 5.27778 14.7403 5.16454 15.0513C5.10601 15.2121 5.01052 15.5193 5.03164 15.7718C5.07434 16.283 5.38862 16.4884 5.67074 16.51C5.9452 16.5206 6.13712 16.366 6.18558 16.2532C6.21437 16.1865 6.1899 16.1462 6.17455 16.1284V16.1294Z" fill="black"/>
<path d="M22.0208 15.1943C22.0102 15.1574 21.9421 14.9083 21.8485 14.6083L21.658 14.0971C22.0332 13.535 22.04 13.0324 21.9901 12.7478C21.9368 12.395 21.79 12.094 21.4939 11.7835C21.1979 11.4724 20.5928 11.1542 19.7421 10.9156L19.2959 10.7918C19.2935 10.7736 19.2724 9.73916 19.2532 9.29516C19.2393 8.97405 19.2115 8.47341 19.056 7.97949C18.8708 7.31133 18.5484 6.72717 18.1453 6.35326C19.257 5.20078 19.9509 3.9307 19.9489 2.84159C19.9456 0.746876 17.3743 0.112799 14.2051 1.42559L13.5339 1.71071C13.531 1.70783 12.3199 0.519357 12.3017 0.503517C8.68873 -2.64911 -2.60843 9.91244 1.00359 12.9633L1.79288 13.6324C1.588 14.1628 1.50787 14.771 1.57361 15.4247C1.65805 16.2643 2.09084 17.0692 2.79281 17.6913C3.45878 18.2817 4.33492 18.6556 5.18466 18.6546C6.59003 21.8951 9.80141 23.8828 13.567 23.9946C17.606 24.1146 20.9968 22.2186 22.4176 18.8126C22.5106 18.5735 22.9051 17.4964 22.9051 16.5455C22.9051 15.5899 22.3653 15.1939 22.0212 15.1939L22.0208 15.1943ZM5.4951 17.7446C5.37227 17.7657 5.24704 17.7739 5.12085 17.771C3.90069 17.7383 2.58313 16.6396 2.45214 15.3364C2.30724 13.8964 3.04279 12.7876 4.34547 12.5251C4.50093 12.4939 4.6895 12.4756 4.89246 12.4862C5.62225 12.526 6.69751 13.0867 6.94317 14.6769C7.16053 16.0852 6.81506 17.5195 5.4951 17.7446ZM4.13292 11.6635C3.32204 11.8214 2.6076 12.2808 2.17049 12.9158C1.90947 12.6979 1.42246 12.276 1.33658 12.1118C0.638933 10.7865 2.09804 8.20989 3.11716 6.75501C5.63617 3.15887 9.58117 0.437277 11.4078 0.930716C11.7048 1.01472 12.688 2.15519 12.688 2.15519C12.688 2.15519 10.8623 3.16847 9.1695 4.5811C6.88847 6.33838 5.16499 8.89197 4.13292 11.6635ZM16.9381 17.206C16.9645 17.195 16.9827 17.1643 16.9799 17.1345C16.976 17.0975 16.9429 17.0707 16.906 17.0745C16.906 17.0745 14.9949 17.3577 13.1894 16.6963C13.3861 16.0569 13.9091 16.2878 14.6993 16.3516C16.1239 16.4366 17.4007 16.2283 18.344 15.9575C19.1616 15.7228 20.2354 15.2601 21.0698 14.6015C21.3509 15.2198 21.4503 15.8999 21.4503 15.8999C21.4503 15.8999 21.6681 15.8611 21.8499 15.9729C22.0217 16.079 22.1479 16.2988 22.062 16.8681C21.8864 17.9313 21.4349 18.7938 20.6758 19.5878C20.2138 20.0855 19.6529 20.518 19.0109 20.8324C18.6702 21.0114 18.307 21.1665 17.9237 21.2918C15.0621 22.2268 12.1323 21.1986 11.1881 18.9911C11.1127 18.825 11.0489 18.6513 10.9985 18.4699C10.596 17.015 10.9376 15.2697 12.0057 14.171C12.0714 14.1009 12.1386 14.0183 12.1386 13.9147C12.1386 13.8278 12.0834 13.7366 12.0359 13.6718C11.6621 13.1299 10.3681 12.2059 10.6281 10.4179C10.8148 9.13341 11.9375 8.22909 12.9845 8.28285L13.2498 8.29821C13.7032 8.32509 14.0991 8.38317 14.4728 8.39901C15.098 8.42589 15.6599 8.33517 16.3254 7.78029C16.55 7.59309 16.7299 7.43085 17.0346 7.37901C17.0667 7.37373 17.1464 7.34493 17.3052 7.35261C17.4678 7.36125 17.6223 7.40589 17.7615 7.49853C18.295 7.85373 18.3708 8.71437 18.3987 9.34364C18.4145 9.70316 18.4577 10.5724 18.4726 10.8216C18.5066 11.3923 18.6563 11.4724 18.9596 11.5728C19.1304 11.6289 19.2887 11.6707 19.5219 11.7364C20.2282 11.9347 20.6471 12.1363 20.9114 12.3945C21.0688 12.5563 21.1422 12.7276 21.1648 12.8918C21.2483 13.4999 20.6931 14.2507 19.2235 14.9332C17.6171 15.6791 15.6685 15.8678 14.3222 15.718L13.8505 15.6647C12.7734 15.5198 12.1592 16.9123 12.8055 17.866C13.222 18.4809 14.3567 18.8807 15.492 18.8812C18.0949 18.8817 20.0958 17.7695 20.8399 16.8091L20.8994 16.7241C20.9359 16.6689 20.9057 16.6387 20.8601 16.6699C20.2522 17.086 17.5513 18.7386 14.6624 18.2414C14.6624 18.2414 14.3112 18.1838 13.9911 18.059C13.7363 17.9601 13.2037 17.7148 13.139 17.1676C15.4704 17.8891 16.9381 17.207 16.9381 17.207V17.206ZM13.245 16.7697L13.2455 16.7702L13.246 16.7711L13.245 16.7697ZM8.78517 6.73965C9.6805 5.7043 10.7831 4.8043 11.7706 4.29886C11.8046 4.28158 11.8411 4.31854 11.8224 4.35214C11.7442 4.49422 11.593 4.79854 11.545 5.02894C11.5374 5.06494 11.5767 5.09182 11.6069 5.07118C12.2211 4.65214 13.2901 4.20334 14.2277 4.14574C14.268 4.14334 14.2872 4.1947 14.2555 4.21966C14.113 4.3291 13.9571 4.4803 13.8433 4.63342C13.8241 4.65934 13.8424 4.69678 13.8745 4.69726C14.5328 4.70206 15.4608 4.93246 16.0653 5.27182C16.1061 5.29486 16.0773 5.37406 16.0313 5.3635C15.1163 5.15374 13.6183 4.99438 12.0623 5.37406C10.6732 5.71294 9.61284 6.23614 8.83939 6.79917C8.80052 6.82749 8.7535 6.77661 8.78517 6.73965Z" fill="black"/>
</svg>
