<svg width="24" height="24" viewBox="0 0 24 24" fill="none" xmlns="http://www.w3.org/2000/svg">
<path d="M9.15184 8.65688L9.15207 8.65605L14.1903 11.6758L17.1925 10.4116C17.8026 10.1477 18.4604 10.0124 19.125 10.013C19.2357 10.013 19.3452 10.0181 19.4541 10.0253C19.0931 8.61702 18.3312 7.34392 17.2608 6.36075C16.1904 5.37758 14.8576 4.72667 13.4245 4.48711C11.9914 4.24755 10.5196 4.42966 9.18794 5.01131C7.8563 5.59296 6.72216 6.54911 5.92334 7.76357C5.949 7.76324 5.97428 7.76163 6 7.76163C7.11349 7.76012 8.20521 8.07021 9.15184 8.65688Z" fill="#0364B8"/>
<path d="M9.15207 8.65606L9.15184 8.65688C8.20521 8.07022 7.11349 7.76012 6 7.76163C5.97427 7.76163 5.94896 7.76325 5.92333 7.76357C4.8335 7.77707 3.76796 8.08747 2.84119 8.66142C1.91443 9.23538 1.16149 10.0512 0.663278 11.0212C0.165069 11.9911 -0.0595727 13.0786 0.0134948 14.1668C0.0865624 15.2549 0.454576 16.3025 1.07799 17.1971L5.52099 15.3262L7.49605 14.4946L11.8937 12.6428L14.1903 11.6758L9.15207 8.65606Z" fill="#0078D4"/>
<path d="M19.4541 10.0253C19.3452 10.0181 19.2357 10.013 19.125 10.013C18.4604 10.0124 17.8027 10.1482 17.1926 10.4121L14.1903 11.6758L15.0609 12.1976L17.9146 13.908L19.1596 14.6542L23.4169 17.2059C23.8037 16.4873 24.0042 15.6831 23.9999 14.8669C23.9957 14.0508 23.7868 13.2487 23.3925 12.5342C22.9982 11.8197 22.431 11.2157 21.743 10.7773C21.0549 10.339 20.2679 10.0805 19.4541 10.0253Z" fill="#1490DF"/>
<path d="M19.1597 14.6542L17.9146 13.908L15.0609 12.1976L14.1903 11.6758L11.8937 12.6428L7.49607 14.4946L5.521 15.3262L1.078 17.1971C1.63013 17.9914 2.36616 18.6402 3.22327 19.0881C4.08037 19.536 5.03307 19.7696 6.00001 19.7691H19.125C20.005 19.7694 20.8687 19.5312 21.6243 19.0799C22.38 18.6286 22.9994 17.981 23.4169 17.2059L19.1597 14.6542Z" fill="#28A8EA"/>
</svg>
