<svg width="24" height="24" viewBox="0 0 24 24" fill="none" xmlns="http://www.w3.org/2000/svg">
<g clip-path="url(#clip0_2002_48)">
<path d="M22.1202 9.82307C22.6647 8.18879 22.4772 6.3985 21.6065 4.91197C20.2969 2.63192 17.6644 1.45889 15.0933 2.0109C13.9496 0.722377 12.3063 -0.0103889 10.5835 0.00011132C7.95544 -0.00588881 5.62363 1.68615 4.81512 4.1867C3.12683 4.53246 1.66955 5.58923 0.816783 7.08701C-0.502496 9.36106 -0.201739 12.2276 1.5608 14.1777C1.01629 15.8119 1.20379 17.6022 2.07456 19.0888C3.38409 21.3688 6.01664 22.5418 8.5877 21.9898C9.73072 23.2784 11.3748 24.0111 13.0975 23.9999C15.7271 24.0066 18.0597 22.3131 18.8682 19.8103C20.5565 19.4645 22.0137 18.4078 22.8665 16.91C24.1843 14.6359 23.8828 11.7716 22.121 9.82157L22.1202 9.82307ZM13.099 22.4316C12.0468 22.4331 11.0275 22.0648 10.2197 21.3906C10.2565 21.3711 10.3202 21.3358 10.3615 21.3103L15.1406 18.5503C15.3851 18.4115 15.5351 18.1512 15.5336 17.87V11.1326L17.5534 12.2989C17.5751 12.3094 17.5894 12.3304 17.5924 12.3544V17.9337C17.5894 20.4148 15.5801 22.4263 13.099 22.4316ZM3.43584 18.3043C2.90858 17.3937 2.71882 16.3265 2.89958 15.2907C2.93483 15.3117 2.99708 15.3499 3.04133 15.3754L7.82043 18.1355C8.06269 18.2773 8.36269 18.2773 8.6057 18.1355L14.4401 14.7664V17.099C14.4416 17.123 14.4303 17.1462 14.4116 17.1612L9.58072 19.9505C7.42892 21.1896 4.68086 20.453 3.43659 18.3043H3.43584ZM2.17806 7.87228C2.70307 6.96026 3.53184 6.26275 4.51886 5.90049C4.51886 5.94174 4.51661 6.01449 4.51661 6.06549V11.5864C4.51511 11.8669 4.66511 12.1271 4.90887 12.2659L10.7432 15.6342L8.72345 16.8005C8.7032 16.814 8.6777 16.8162 8.6552 16.8065L3.8236 14.0149C1.6763 12.7714 0.939785 10.0241 2.17731 7.87303L2.17806 7.87228ZM18.7729 11.7341L12.9385 8.36504L14.9583 7.19952C14.9786 7.18602 15.0041 7.18377 15.0266 7.19352L19.8582 9.98283C22.0092 11.2256 22.7465 13.9774 21.5037 16.1285C20.978 17.039 20.1499 17.7365 19.1637 18.0995V12.4136C19.1659 12.1331 19.0167 11.8736 18.7737 11.7341H18.7729ZM20.783 8.70855C20.7477 8.6868 20.6855 8.6493 20.6412 8.6238L15.8621 5.86374C15.6198 5.72198 15.3198 5.72198 15.0768 5.86374L9.24246 9.23281V6.90026C9.24096 6.87626 9.25221 6.85301 9.27096 6.83801L14.1018 4.05095C16.2536 2.80967 19.0047 3.54844 20.2452 5.70098C20.7695 6.61 20.9592 7.67428 20.7815 8.70855H20.783ZM8.14444 12.8659L6.1239 11.6996C6.10214 11.6891 6.08789 11.6681 6.08489 11.6441V6.06474C6.08639 3.58069 8.10169 1.56764 10.5857 1.56914C11.6365 1.56914 12.6535 1.93815 13.4613 2.61017C13.4246 2.62967 13.3616 2.66492 13.3195 2.69042L8.54045 5.45048C8.29594 5.58923 8.14594 5.84874 8.14744 6.12999L8.14444 12.8644V12.8659ZM9.24171 10.5003L11.8405 8.99955L14.4393 10.4996V13.5004L11.8405 15.0004L9.24171 13.5004V10.5003Z" fill="black"/>
</g>
<defs>
<clipPath id="clip0_2002_48">
<rect width="24" height="24" fill="white"/>
</clipPath>
</defs>
</svg>
