<svg width="24" height="24" viewBox="0 0 24 24" fill="none" xmlns="http://www.w3.org/2000/svg">
<g clip-path="url(#clip0_2002_49)">
<path d="M17.9236 8.23234C15.1356 6.67295 10.6607 4.16893 3.71978 0.282562C3.25183 -0.0264851 2.71342 -0.0669852 2.24823 0.0904683L14.1568 11.9991L17.9236 8.23234Z" fill="#32BBFF"/>
<path d="M2.24824 0.0904694C2.16106 0.120001 2.07621 0.155626 1.99507 0.198657C1.48137 0.476533 1.10388 1.01124 1.10388 1.6875V22.3107C1.10388 22.9869 1.48132 23.5216 1.99507 23.7995C2.07607 23.8425 2.16087 23.8782 2.24796 23.9079L14.1569 11.9991L2.24824 0.0904694Z" fill="#32BBFF"/>
<path d="M14.1569 11.9991L2.24799 23.9079C2.71331 24.0666 3.25172 24.0292 3.71982 23.7156C10.451 19.9464 14.8754 17.472 17.6957 15.8994C17.7742 15.8553 17.8512 15.8121 17.9272 15.7694L14.1569 11.9991Z" fill="#32BBFF"/>
<path d="M1.10388 11.9991V22.3107C1.10388 22.9869 1.48132 23.5216 1.99507 23.7995C2.07607 23.8425 2.16087 23.8782 2.24796 23.9079L14.1569 11.9991H1.10388Z" fill="#2C9FD9"/>
<path d="M3.71978 0.282559C3.16407 -0.0843794 2.50876 -0.0739263 1.99506 0.198699L13.9761 12.1798L17.9235 8.23234C15.1356 6.67295 10.6607 4.16893 3.71978 0.282559Z" fill="#29CC5E"/>
<path d="M13.9762 11.8184L1.99506 23.7995C2.50881 24.072 3.16407 24.0878 3.71978 23.7156C10.4509 19.9464 14.8754 17.472 17.6957 15.8994C17.7742 15.8553 17.8511 15.8121 17.9272 15.7694L13.9762 11.8184Z" fill="#D93F21"/>
<path d="M22.8961 11.9991C22.8961 11.4277 22.6078 10.851 22.0363 10.5312C22.0363 10.5312 20.9676 9.93494 17.6919 8.10268L13.7955 11.9991L17.6957 15.8993C20.9355 14.0802 22.0363 13.4669 22.0363 13.4669C22.6078 13.1471 22.8961 12.5705 22.8961 11.9991Z" fill="#FFD500"/>
<path d="M22.0363 13.4669C22.6078 13.1471 22.8961 12.5705 22.8961 11.9991H13.7955L17.6957 15.8993C20.9355 14.0803 22.0363 13.4669 22.0363 13.4669Z" fill="#FFAA00"/>
</g>
<defs>
<clipPath id="clip0_2002_49">
<rect width="24" height="24" fill="white"/>
</clipPath>
</defs>
</svg>
