<svg width="24" height="24" viewBox="0 0 24 24" fill="none" xmlns="http://www.w3.org/2000/svg">
<path fill-rule="evenodd" clip-rule="evenodd" d="M6.9 6.9L7.19 5.741C7.27 5.418 7.73 5.418 7.81 5.741L8.1 6.9L9.258 7.19C9.581 7.27 9.581 7.73 9.258 7.81L8.1 8.1L7.81 9.258C7.73 9.581 7.27 9.581 7.19 9.258L6.9 8.1L5.742 7.81C5.419 7.73 5.419 7.27 5.742 7.19L6.9 6.9ZM15.9 15.9L16.19 14.742C16.27 14.419 16.73 14.419 16.81 14.742L17.1 15.9L18.258 16.19C18.581 16.27 18.581 16.73 18.258 16.81L17.1 17.1L16.81 18.259C16.73 18.582 16.27 18.582 16.19 18.259L15.9 17.1L14.742 16.81C14.419 16.73 14.419 16.27 14.742 16.19L15.9 15.9ZM10.714 10.714L7.9 11.482L7.77 11.517L7.437 11.608L7.238 11.662C6.894 11.756 6.894 12.244 7.238 12.338L7.438 12.392L7.771 12.482L7.901 12.518L10.714 13.286L11.482 16.1L11.517 16.23L11.608 16.563L11.662 16.762C11.756 17.106 12.244 17.106 12.338 16.762L12.392 16.562L12.482 16.229L12.518 16.099L13.286 13.286L16.1 12.518L16.23 12.483L16.563 12.392L16.762 12.338C17.106 12.244 17.106 11.756 16.762 11.662L16.562 11.608L16.229 11.518L16.099 11.482L13.286 10.714L12.518 7.9L12.483 7.77L12.392 7.437L12.338 7.238C12.244 6.894 11.756 6.894 11.662 7.238L11.608 7.438L11.518 7.771L11.482 7.901L10.714 10.714ZM6.975 13.302L9.9 14.1L10.698 17.025C11.059 18.351 12.941 18.351 13.302 17.025L14.1 14.1L17.025 13.302C18.351 12.941 18.351 11.059 17.025 10.698L14.1 9.9L13.302 6.975C12.941 5.649 11.059 5.649 10.698 6.975L9.9 9.9L6.975 10.698C5.649 11.059 5.649 12.941 6.975 13.302Z" fill="#1B1F24"/>
</svg>
