<svg width="24" height="24" viewBox="0 0 24 24" fill="none" xmlns="http://www.w3.org/2000/svg">
<path fill-rule="evenodd" clip-rule="evenodd" d="M5.5 7H9.5C9.776 7 10 7.224 10 7.5V9.5C10 9.776 9.776 10 9.5 10H5.5C5.224 10 5 9.776 5 9.5V7.5C5 7.224 5.224 7 5.5 7ZM4 7.5C4 6.672 4.672 6 5.5 6H9.5C10.328 6 11 6.672 11 7.5V9.5C11 10.328 10.328 11 9.5 11H5.5C4.672 11 4 10.328 4 9.5V7.5ZM5.5 14H9.5C9.776 14 10 14.224 10 14.5V16.5C10 16.776 9.776 17 9.5 17H5.5C5.224 17 5 16.776 5 16.5V14.5C5 14.224 5.224 14 5.5 14ZM4 14.5C4 13.672 4.672 13 5.5 13H9.5C10.328 13 11 13.672 11 14.5V16.5C11 17.328 10.328 18 9.5 18H5.5C4.672 18 4 17.328 4 16.5V14.5ZM18.5 7H14.5C14.224 7 14 7.224 14 7.5V9.5C14 9.776 14.224 10 14.5 10H18.5C18.776 10 19 9.776 19 9.5V7.5C19 7.224 18.776 7 18.5 7ZM14.5 6C13.672 6 13 6.672 13 7.5V9.5C13 10.328 13.672 11 14.5 11H18.5C19.328 11 20 10.328 20 9.5V7.5C20 6.672 19.328 6 18.5 6H14.5ZM14.5 14H18.5C18.776 14 19 14.224 19 14.5V16.5C19 16.776 18.776 17 18.5 17H14.5C14.224 17 14 16.776 14 16.5V14.5C14 14.224 14.224 14 14.5 14ZM13 14.5C13 13.672 13.672 13 14.5 13H18.5C19.328 13 20 13.672 20 14.5V16.5C20 17.328 19.328 18 18.5 18H14.5C13.672 18 13 17.328 13 16.5V14.5Z" fill="#1B1F24" fill-opacity="0.9"/>
</svg>
