<svg width="24" height="24" viewBox="0 0 24 24" fill="none" xmlns="http://www.w3.org/2000/svg">
<path fill-rule="evenodd" clip-rule="evenodd" d="M12 4C10.9245 3.99974 9.86332 4.24732 8.89894 4.72353C7.93457 5.19974 7.0929 5.89177 6.43927 6.74591C5.78563 7.60005 5.33761 8.59332 5.12997 9.64863C4.92233 10.7039 4.96067 11.7929 5.242 12.831C5.27661 12.9591 5.25892 13.0957 5.19281 13.2108C5.1267 13.3258 5.0176 13.4099 4.8895 13.4445C4.7614 13.4791 4.6248 13.4614 4.50974 13.3953C4.39469 13.3292 4.31061 13.2201 4.276 13.092C3.99435 12.0398 3.93054 10.9412 4.08847 9.86344C4.24641 8.78571 4.62276 7.75158 5.19447 6.82444C5.76619 5.8973 6.52121 5.09667 7.41327 4.47163C8.30533 3.84659 9.31563 3.41029 10.3823 3.1895C11.4489 2.9687 12.5494 2.96804 13.6163 3.18757C14.6831 3.40709 15.694 3.84218 16.5868 4.46616C17.4796 5.09014 18.2356 5.88986 18.8084 6.81632C19.3812 7.74278 19.7588 8.77646 19.918 9.854C19.9273 9.91901 19.9238 9.98521 19.9075 10.0488C19.8912 10.1125 19.8626 10.1723 19.8232 10.2248C19.7838 10.2774 19.7345 10.3217 19.678 10.3552C19.6215 10.3886 19.559 10.4107 19.494 10.42C19.429 10.4293 19.3628 10.4258 19.2992 10.4095C19.2355 10.3932 19.1757 10.3646 19.1232 10.3252C19.0706 10.2859 19.0263 10.2365 18.9928 10.18C18.9594 10.1235 18.9373 10.061 18.928 9.996C18.6867 8.33077 17.8536 6.80819 16.5813 5.70705C15.309 4.60592 13.6826 3.99991 12 4ZM12 7C10.9391 7 9.92172 7.42143 9.17157 8.17158C8.42143 8.92172 8 9.93914 8 11C8 11.1326 7.94732 11.2598 7.85355 11.3536C7.75978 11.4473 7.63261 11.5 7.5 11.5C7.36739 11.5 7.24021 11.4473 7.14645 11.3536C7.05268 11.2598 7 11.1326 7 11C6.99958 9.86047 7.38843 8.75499 8.10212 7.86664C8.81582 6.97829 9.81155 6.36038 10.9244 6.11524C12.0372 5.87011 13.2005 6.01246 14.2213 6.51872C15.2422 7.02497 16.0596 7.86477 16.538 8.899C16.568 8.95887 16.5857 9.02415 16.59 9.09097C16.5942 9.15779 16.5851 9.22479 16.563 9.288C16.5409 9.35121 16.5063 9.40933 16.4613 9.45893C16.4163 9.50852 16.3618 9.54857 16.3011 9.57671C16.2403 9.60485 16.1745 9.62049 16.1076 9.62272C16.0407 9.62494 15.974 9.61371 15.9115 9.58967C15.849 9.56564 15.792 9.52929 15.7438 9.4828C15.6956 9.4363 15.6572 9.3806 15.631 9.319C15.3102 8.62626 14.7978 8.0398 14.1544 7.62888C13.511 7.21796 12.7634 6.99974 12 7ZM12 9C11.4696 9 10.9609 9.21072 10.5858 9.58579C10.2107 9.96086 10 10.4696 10 11V13.974L9.902 13.878C9.52196 13.5155 9.0146 13.3171 8.48949 13.3255C7.96438 13.334 7.46366 13.5486 7.09546 13.9231C6.72727 14.2976 6.52115 14.8019 6.52163 15.3271C6.5221 15.8523 6.72913 16.3562 7.098 16.73L7.836 17.455C8.533 18.139 9.304 18.894 9.86 19.45C10.56 20.15 11.725 20.707 13.034 20.913C14.5504 21.1562 16.1048 20.9011 17.464 20.186C18.721 19.528 19.39 18.598 19.715 17.641C20.018 16.751 20.007 15.874 20.001 15.331V15.295L19.999 15.219L20 15V14C19.9999 13.6378 19.9015 13.2824 19.7152 12.9717C19.5289 12.6611 19.2617 12.4068 18.9422 12.2362C18.6227 12.0656 18.2628 11.9849 17.901 12.0028C17.5392 12.0208 17.1891 12.1366 16.888 12.338C16.7907 12.0605 16.6334 11.8078 16.4272 11.598C16.2211 11.3882 15.9713 11.2265 15.6955 11.1243C15.4197 11.0221 15.1247 10.982 14.8317 11.0068C14.5386 11.0317 14.2547 11.1209 14 11.268V11C14 10.4696 13.7893 9.96086 13.4142 9.58579C13.0391 9.21072 12.5304 9 12 9ZM19 15C19 15.0227 18.9993 15.045 18.998 15.067L17 14.352V13.996C17.0005 13.7308 17.1064 13.4766 17.2943 13.2895C17.4822 13.1023 17.7368 12.9975 18.002 12.998C18.2672 12.9985 18.5214 13.1044 18.7085 13.2923C18.8957 13.4802 19.0005 13.7348 19 14V15ZM17 14.477V14.352L16 13.994V13C16 12.7348 15.8946 12.4804 15.7071 12.2929C15.5196 12.1054 15.2652 12 15 12C14.7348 12 14.4804 12.1054 14.2929 12.2929C14.1054 12.4804 14 12.7348 14 13V14.376C14 14.5086 13.9473 14.6358 13.8536 14.7296C13.7598 14.8233 13.6326 14.876 13.5 14.876C13.3674 14.876 13.2402 14.8233 13.1464 14.7296C13.0527 14.6358 13 14.5086 13 14.376V11C13 10.7348 12.8946 10.4804 12.7071 10.2929C12.5196 10.1054 12.2652 10 12 10C11.7348 10 11.4804 10.1054 11.2929 10.2929C11.1054 10.4804 11 10.7348 11 11V15.008C10.9867 15.1188 10.9426 15.2237 10.8727 15.3108C10.8029 15.3979 10.71 15.4637 10.6047 15.5007C10.4994 15.5378 10.3858 15.5446 10.2768 15.5204C10.1678 15.4963 10.0678 15.4421 9.988 15.364L9.201 14.591C9.10787 14.4966 8.99689 14.4217 8.87453 14.3706C8.75218 14.3195 8.62088 14.2933 8.48828 14.2934C8.35568 14.2935 8.22443 14.32 8.10217 14.3713C7.9799 14.4226 7.86906 14.4977 7.7761 14.5923C7.68314 14.6868 7.60991 14.7989 7.56068 14.9221C7.51144 15.0452 7.48718 15.1769 7.48931 15.3094C7.49144 15.442 7.51992 15.5729 7.57309 15.6943C7.62625 15.8158 7.70305 15.9255 7.799 16.017L8.533 16.737C9.231 17.422 10.007 18.183 10.567 18.743C11.603 19.779 14.38 20.673 17 19.301C19.036 18.234 19.014 16.413 19 15.307V15.239L18.998 15.067L17 14.477Z" fill="#1B1F24"/>
</svg>
