<svg width="24" height="24" viewBox="0 0 24 24" fill="none" xmlns="http://www.w3.org/2000/svg">
<path fill-rule="evenodd" clip-rule="evenodd" d="M6 5C5.86739 5 5.74021 5.05268 5.64645 5.14645C5.55268 5.24021 5.5 5.36739 5.5 5.5V6.5C5.5 6.63192 5.55212 6.75849 5.64503 6.85215C5.73793 6.9458 5.86409 6.99894 5.996 7H18.004C18.1359 6.99894 18.2621 6.9458 18.355 6.85215C18.4479 6.75849 18.5 6.63192 18.5 6.5V5.5C18.5 5.36739 18.4473 5.24021 18.3536 5.14645C18.2598 5.05268 18.1326 5 18 5H6ZM4.5 6.5C4.49995 6.81691 4.60027 7.12568 4.78656 7.38205C4.97286 7.63841 5.23557 7.82918 5.537 7.927L5.725 10H5C4.86739 10 4.74021 10.0527 4.64645 10.1464C4.55268 10.2402 4.5 10.3674 4.5 10.5C4.5 10.6326 4.55268 10.7598 4.64645 10.8536C4.74021 10.9473 4.86739 11 5 11H5.816L6.469 18.181C6.51416 18.6779 6.74342 19.14 7.1118 19.4766C7.48017 19.8131 7.96104 19.9998 8.46 20H15.538C16.0371 20.0001 16.5182 19.8135 16.8868 19.4769C17.2554 19.1403 17.4848 18.6781 17.53 18.181L18.184 11H19C19.1326 11 19.2598 10.9473 19.3536 10.8536C19.4473 10.7598 19.5 10.6326 19.5 10.5C19.5 10.3674 19.4473 10.2402 19.3536 10.1464C19.2598 10.0527 19.1326 10 19 10H18.275L18.463 7.927C18.7644 7.82918 19.0271 7.63841 19.2134 7.38205C19.3997 7.12568 19.5001 6.81691 19.5 6.5V5.5C19.5 5.10218 19.342 4.72064 19.0607 4.43934C18.7794 4.15804 18.3978 4 18 4H6C5.60218 4 5.22064 4.15804 4.93934 4.43934C4.65804 4.72064 4.5 5.10218 4.5 5.5V6.5ZM7.465 18.09L6.548 8H17.453L16.535 18.09C16.5125 18.3386 16.3979 18.5699 16.2136 18.7383C16.0293 18.9067 15.7886 19 15.539 19H8.461C8.21135 19 7.97073 18.9067 7.78643 18.7383C7.60212 18.5699 7.48747 18.3386 7.465 18.09ZM11 10.5C11 10.3674 10.9473 10.2402 10.8536 10.1464C10.7598 10.0527 10.6326 10 10.5 10C10.3674 10 10.2402 10.0527 10.1464 10.1464C10.0527 10.2402 10 10.3674 10 10.5V16.5C10 16.6326 10.0527 16.7598 10.1464 16.8536C10.2402 16.9473 10.3674 17 10.5 17C10.6326 17 10.7598 16.9473 10.8536 16.8536C10.9473 16.7598 11 16.6326 11 16.5V10.5ZM14 10.5C14 10.3674 13.9473 10.2402 13.8536 10.1464C13.7598 10.0527 13.6326 10 13.5 10C13.3674 10 13.2402 10.0527 13.1464 10.1464C13.0527 10.2402 13 10.3674 13 10.5V16.5C13 16.6326 13.0527 16.7598 13.1464 16.8536C13.2402 16.9473 13.3674 17 13.5 17C13.6326 17 13.7598 16.9473 13.8536 16.8536C13.9473 16.7598 14 16.6326 14 16.5V10.5Z" fill="#1B1F24"/>
</svg>
