<svg width="24" height="24" viewBox="0 0 24 24" fill="none" xmlns="http://www.w3.org/2000/svg">
<path fill-rule="evenodd" clip-rule="evenodd" d="M3 9C3 10.521 3.566 11.91 4.5 12.968C5.52393 14.1293 6.95714 14.8499 8.5 14.979C8.56496 14.9832 8.63008 14.9738 8.69124 14.9515C8.75239 14.9292 8.80824 14.8944 8.85524 14.8494C8.90225 14.8043 8.93939 14.75 8.96431 14.6899C8.98923 14.6297 9.00138 14.5651 9 14.5C8.99752 14.3675 8.94608 14.2407 8.85559 14.1439C8.76511 14.0472 8.64199 13.9873 8.51 13.976H8.5C7.2616 13.8515 6.11415 13.2696 5.282 12.344C4.75394 11.7567 4.37253 11.0526 4.16901 10.2894C3.9655 9.52631 3.94566 8.72581 4.11114 7.95352C4.27661 7.18124 4.62268 6.45914 5.12101 5.84637C5.61933 5.23361 6.25573 4.74761 6.97807 4.4282C7.70041 4.10878 8.48815 3.96503 9.27676 4.00872C10.0654 4.05241 10.8324 4.2823 11.515 4.67955C12.1977 5.07681 12.7765 5.63013 13.2041 6.29419C13.6317 6.95825 13.8959 7.71416 13.975 8.5L13.976 8.508L13.989 8.581C14.0151 8.69789 14.0796 8.80267 14.1722 8.87862C14.2649 8.95456 14.3803 8.99729 14.5 9C14.5652 9.00152 14.6299 8.98947 14.6902 8.96461C14.7504 8.93976 14.8049 8.90264 14.85 8.85562C14.8952 8.8086 14.93 8.7527 14.9524 8.69148C14.9748 8.63026 14.9842 8.56505 14.98 8.5C14.8506 6.957 14.1297 5.52377 12.968 4.5C12.102 3.73645 11.034 3.23898 9.8923 3.06727C8.75057 2.89557 7.58355 3.05693 6.53124 3.53198C5.47894 4.00704 4.58605 4.77562 3.95969 5.74552C3.33333 6.71542 3.00011 7.84543 3 9ZM12 11H19C19.2652 11 19.5196 11.1054 19.7071 11.2929C19.8946 11.4804 20 11.7348 20 12V19C20 19.2652 19.8946 19.5196 19.7071 19.7071C19.5196 19.8946 19.2652 20 19 20H12C11.7348 20 11.4804 19.8946 11.2929 19.7071C11.1054 19.5196 11 19.2652 11 19V12C11 11.7348 11.1054 11.4804 11.2929 11.2929C11.4804 11.1054 11.7348 11 12 11ZM10 12C10 11.4696 10.2107 10.9609 10.5858 10.5858C10.9609 10.2107 11.4696 10 12 10H19C19.5304 10 20.0391 10.2107 20.4142 10.5858C20.7893 10.9609 21 11.4696 21 12V19C21 19.5304 20.7893 20.0391 20.4142 20.4142C20.0391 20.7893 19.5304 21 19 21H12C11.4696 21 10.9609 20.7893 10.5858 20.4142C10.2107 20.0391 10 19.5304 10 19V12Z" fill="#1B1F24"/>
</svg>
