<svg width="24" height="24" viewBox="0 0 24 24" fill="none" xmlns="http://www.w3.org/2000/svg">
<path fill-rule="evenodd" clip-rule="evenodd" d="M5 6H19C19.2652 6 19.5196 6.10536 19.7071 6.29289C19.8946 6.48043 20 6.73478 20 7V15C20 15.2652 19.8946 15.5196 19.7071 15.7071C19.5196 15.8946 19.2652 16 19 16H5C4.73478 16 4.48043 15.8946 4.29289 15.7071C4.10536 15.5196 4 15.2652 4 15V7C4 6.73478 4.10536 6.48043 4.29289 6.29289C4.48043 6.10536 4.73478 6 5 6ZM3 7C3 6.46957 3.21071 5.96086 3.58579 5.58579C3.96086 5.21071 4.46957 5 5 5H19C19.5304 5 20.0391 5.21071 20.4142 5.58579C20.7893 5.96086 21 6.46957 21 7V15C21 15.5304 20.7893 16.0391 20.4142 16.4142C20.0391 16.7893 19.5304 17 19 17H17.018L17.963 19.31C18.0134 19.4328 18.0129 19.5706 17.9617 19.693C17.9105 19.8155 17.8128 19.9126 17.69 19.963C17.5672 20.0134 17.4294 20.0129 17.307 19.9617C17.1845 19.9105 17.0874 19.8128 17.037 19.69L15.937 17H8.063L6.963 19.69C6.93811 19.7508 6.9015 19.8061 6.85524 19.8528C6.80898 19.8994 6.75398 19.9365 6.69339 19.9619C6.6328 19.9873 6.5678 20.0005 6.50211 20.0008C6.43641 20.0011 6.3713 19.9884 6.3105 19.9635C6.2497 19.9386 6.19439 19.902 6.14774 19.8557C6.10109 19.8095 6.06401 19.7545 6.03861 19.6939C6.01322 19.6333 6 19.5683 5.99973 19.5026C5.99945 19.4369 6.01211 19.3718 6.037 19.311L6.982 17H5C4.46957 17 3.96086 16.7893 3.58579 16.4142C3.21071 16.0391 3 15.5304 3 15V7ZM7.7 10.2L8.015 8.94C8.141 8.435 8.859 8.435 8.985 8.94L9.3 10.2L10.56 10.515C11.065 10.641 11.065 11.359 10.56 11.485L9.3 11.8L8.985 13.06C8.859 13.565 8.141 13.565 8.015 13.06L7.7 11.8L6.44 11.485C5.935 11.359 5.935 10.641 6.44 10.515L7.7 10.2ZM12.5 9C12.3674 9 12.2402 9.05268 12.1464 9.14645C12.0527 9.24021 12 9.36739 12 9.5C12 9.63261 12.0527 9.75979 12.1464 9.85355C12.2402 9.94732 12.3674 10 12.5 10H17.5C17.6326 10 17.7598 9.94732 17.8536 9.85355C17.9473 9.75979 18 9.63261 18 9.5C18 9.36739 17.9473 9.24021 17.8536 9.14645C17.7598 9.05268 17.6326 9 17.5 9H12.5ZM12.5 12C12.3674 12 12.2402 12.0527 12.1464 12.1464C12.0527 12.2402 12 12.3674 12 12.5C12 12.6326 12.0527 12.7598 12.1464 12.8536C12.2402 12.9473 12.3674 13 12.5 13H16.5C16.6326 13 16.7598 12.9473 16.8536 12.8536C16.9473 12.7598 17 12.6326 17 12.5C17 12.3674 16.9473 12.2402 16.8536 12.1464C16.7598 12.0527 16.6326 12 16.5 12H12.5Z" fill="#1B1F24"/>
</svg>
